<svg width="20" height="20" viewBox="0 0 20 20" fill="none" xmlns="http://www.w3.org/2000/svg">
<path d="M15.8334 9.16665H10.8334V4.16665C10.8334 3.94563 10.7456 3.73367 10.5893 3.57739C10.433 3.42111 10.2211 3.33331 10 3.33331C9.77903 3.33331 9.56707 3.42111 9.41079 3.57739C9.2545 3.73367 9.16671 3.94563 9.16671 4.16665V9.16665H4.16671C3.94569 9.16665 3.73373 9.25444 3.57745 9.41072C3.42117 9.567 3.33337 9.77897 3.33337 9.99998C3.33337 10.221 3.42117 10.433 3.57745 10.5892C3.73373 10.7455 3.94569 10.8333 4.16671 10.8333H9.16671V15.8333C9.16671 16.0543 9.2545 16.2663 9.41079 16.4226C9.56707 16.5788 9.77903 16.6666 10 16.6666C10.2211 16.6666 10.433 16.5788 10.5893 16.4226C10.7456 16.2663 10.8334 16.0543 10.8334 15.8333V10.8333H15.8334C16.0544 10.8333 16.2663 10.7455 16.4226 10.5892C16.5789 10.433 16.6667 10.221 16.6667 9.99998C16.6667 9.77897 16.5789 9.567 16.4226 9.41072C16.2663 9.25444 16.0544 9.16665 15.8334 9.16665Z" fill="white"/>
</svg>
