<svg width="16" height="16" viewBox="0 0 16 16" fill="none" xmlns="http://www.w3.org/2000/svg">
<path d="M8.00008 8.66667C7.82327 8.66667 7.6537 8.73691 7.52868 8.86194C7.40365 8.98696 7.33341 9.15653 7.33341 9.33334V11.3333C7.33341 11.5102 7.40365 11.6797 7.52868 11.8047C7.6537 11.9298 7.82327 12 8.00008 12C8.17689 12 8.34646 11.9298 8.47149 11.8047C8.59651 11.6797 8.66675 11.5102 8.66675 11.3333V9.33334C8.66675 9.15653 8.59651 8.98696 8.47149 8.86194C8.34646 8.73691 8.17689 8.66667 8.00008 8.66667ZM11.3334 6.00001H6.00008V4.66667C5.99911 4.2708 6.11564 3.88354 6.33492 3.55394C6.5542 3.22435 6.86636 2.96724 7.23187 2.81518C7.59738 2.66312 7.99979 2.62296 8.38814 2.69977C8.77649 2.77658 9.13332 2.96692 9.41341 3.24667C9.66405 3.50272 9.84332 3.81989 9.93341 4.16667C9.9553 4.2516 9.9937 4.33137 10.0464 4.40146C10.0991 4.47154 10.1651 4.53055 10.2407 4.57512C10.3162 4.61969 10.3998 4.64895 10.4866 4.66123C10.5734 4.67351 10.6618 4.66856 10.7467 4.64667C10.8317 4.62479 10.9114 4.58639 10.9815 4.53367C11.0516 4.48095 11.1106 4.41494 11.1552 4.33942C11.1998 4.26389 11.229 4.18033 11.2413 4.0935C11.2536 4.00666 11.2486 3.91826 11.2267 3.83334C11.0749 3.25654 10.7736 2.72996 10.3534 2.30667C9.88687 1.84158 9.29297 1.52517 8.64672 1.39737C8.00047 1.26957 7.33084 1.33613 6.72239 1.58864C6.11394 1.84116 5.59395 2.26829 5.22809 2.81612C4.86222 3.36395 4.66689 4.00791 4.66675 4.66667V6.00001C4.13631 6.00001 3.62761 6.21072 3.25253 6.58579C2.87746 6.96087 2.66675 7.46957 2.66675 8.00001V12.6667C2.66675 13.1971 2.87746 13.7058 3.25253 14.0809C3.62761 14.456 4.13631 14.6667 4.66675 14.6667H11.3334C11.8638 14.6667 12.3726 14.456 12.7476 14.0809C13.1227 13.7058 13.3334 13.1971 13.3334 12.6667V8.00001C13.3334 7.46957 13.1227 6.96087 12.7476 6.58579C12.3726 6.21072 11.8638 6.00001 11.3334 6.00001ZM12.0001 12.6667C12.0001 12.8435 11.9298 13.0131 11.8048 13.1381C11.6798 13.2631 11.5102 13.3333 11.3334 13.3333H4.66675C4.48994 13.3333 4.32037 13.2631 4.19534 13.1381C4.07032 13.0131 4.00008 12.8435 4.00008 12.6667V8.00001C4.00008 7.8232 4.07032 7.65363 4.19534 7.5286C4.32037 7.40358 4.48994 7.33334 4.66675 7.33334H11.3334C11.5102 7.33334 11.6798 7.40358 11.8048 7.5286C11.9298 7.65363 12.0001 7.8232 12.0001 8.00001V12.6667Z" fill="#4D5562"/>
</svg>
