<svg width="32" height="32" viewBox="0 0 32 32" fill="none" xmlns="http://www.w3.org/2000/svg">
<g clip-path="url(#clip0_2002_21)">
<rect width="32" height="32" rx="16" fill="#6281F7"/>
<path d="M19.2958 13.5835L16.4083 10.7427C16.1808 10.521 15.8192 10.521 15.5917 10.7427L12.7042 13.5835C11.8583 14.4177 11.3333 15.5669 11.3333 16.8327C11.3333 19.3702 13.4217 21.4235 16 21.4235C18.5783 21.4235 20.6667 19.3702 20.6667 16.8327C20.6667 15.5669 20.1417 14.4177 19.2958 13.5835ZM13.5208 14.4177L16 11.9794L18.4792 14.4177C18.9925 14.9252 19.6692 15.9285 19.4533 17.3402H12.5408C12.325 15.9285 13.0075 14.9194 13.5208 14.4177Z" fill="#F6F7FB"/>
</g>
<defs>
<clipPath id="clip0_2002_21">
<rect width="32" height="32" rx="16" fill="white"/>
</clipPath>
</defs>
</svg>
